<svg xmlns="http://www.w3.org/2000/svg" width="299.04" height="51.246" viewBox="0 0 299.04 51.246">
  <path id="パス_19285" data-name="パス 19285" d="M26.7-32.82H4.98v-9.66h34.5a57.349,57.349,0,0,1-3.87,12.9,75.148,75.148,0,0,1-5.73,10.74q2.7,3.54,5.37,6.48a45,45,0,0,0,4.62,4.53q1.95,1.59,2.01,1.65V5.28Q38.64,2.94,36,.72a71.114,71.114,0,0,1-5.64-5.37,75.448,75.448,0,0,1-5.82-6.93,63.953,63.953,0,0,1-7.47,7.83,57.486,57.486,0,0,1-7.05,5.37A51.839,51.839,0,0,1,4.8,4.59q-1.98.93-2.04.93V-5.22a41.281,41.281,0,0,0,9.39-6.48,64.648,64.648,0,0,0,7.83-8.7A54.937,54.937,0,0,0,26.7-32.82Zm50.22.36H47.52V-42.3H87v9.9a32.247,32.247,0,0,1-4.11,11.64,40.633,40.633,0,0,1-6.57,8.64q-3.42,3.3-6,5.52L76.68,3.78H65.58L48.3-24.42H59.46l6.12,9.96a22.278,22.278,0,0,0,4.41-3.96,30.765,30.765,0,0,0,4.41-6.45A24.407,24.407,0,0,0,76.92-32.46Zm17.1,16.98V-24.9h27.72v9.42Zm70.62-13.08v9.42h-25.2V5.52h-9.48V-44.76h9.48v16.2ZM180.9-45h9.48q-.24,1.68-.6,3.24t-.72,3H208.8v9.18a40.83,40.83,0,0,1-3.42,13.77A33.372,33.372,0,0,1,198.75-6,39.119,39.119,0,0,1,190.83.18a56.892,56.892,0,0,1-7.56,3.72,42.511,42.511,0,0,1-5.73,1.89,14.777,14.777,0,0,1-2.28.45V-3.48a15.79,15.79,0,0,0,2.37-.57A34.56,34.56,0,0,0,183.3-6.3a30.528,30.528,0,0,0,7.02-4.92,26.951,26.951,0,0,0,5.91-7.62,31.853,31.853,0,0,0,3.03-10.98H185.4a55.264,55.264,0,0,1-6.78,8.76,44.533,44.533,0,0,1-5.49,4.92,12.737,12.737,0,0,1-2.31,1.5V-26.22a15.564,15.564,0,0,0,1.35-1.11,18.838,18.838,0,0,0,2.97-3.57,42.115,42.115,0,0,0,3.27-5.85A34.182,34.182,0,0,0,180.9-45Zm62.58,25.8h-27.6v-8.94h38.88a37.824,37.824,0,0,1-2.22,13.62,23.981,23.981,0,0,1-6.3,9.42A34.588,34.588,0,0,1,237.96.54a39.743,39.743,0,0,1-7.98,2.85q-3.78.87-6.12,1.17t-2.46.3V-4.8a11.8,11.8,0,0,0,1.98-.18A38.214,38.214,0,0,0,228.24-6a33.422,33.422,0,0,0,6.12-2.34,18.852,18.852,0,0,0,5.61-4.2A15.627,15.627,0,0,0,243.48-19.2ZM217.56-33.78v-8.94h34.56v8.94Zm74.7,1.8h9.54q-3,10.98-8.04,17.88A44.97,44.97,0,0,1,283.29-3.45,39.835,39.835,0,0,1,273,1.86a38.21,38.21,0,0,1-7.95,1.83,29.969,29.969,0,0,1-3.15.21V-5.88a18.864,18.864,0,0,0,2.46-.09,30.035,30.035,0,0,0,6.15-1.23,25.321,25.321,0,0,0,7.89-4.14,37.163,37.163,0,0,0,7.65-7.77A45.668,45.668,0,0,0,292.26-31.98ZM261.9-32.7v-9.36h18.72v9.36Z" transform="translate(-2.76 45)" fill="#003fa3"/>
</svg>
